<svg xmlns="http://www.w3.org/2000/svg" data-testid="spot-profile" viewBox="0 0 48 48"><circle cx="24" cy="24" r="22" fill="#fff"/><path fill="#D92228" d="M37.4 35.761c.116.253 1.42 2.18 1.517 2.438.755 2.02-3.807 6.338-6.034 6.338L28.299 46h-8.595l-3.538-1.463c-3.54-1.462-7.834-2.855-7.079-4.876.097-.258.797-2.408.913-2.661.669-1.451 2.764-2.39 4-3.5 1.236-1.11 2.826-1.411 4.44-2.012L23.475 31h5.078c1.614.601 4.073.725 5.309 1.836 1.235 1.11 2.87 1.474 3.539 2.925ZM32 19a8 8 0 1 1-16 0 8 8 0 0 1 16 0Z"/><path fill="#D92228" fill-rule="evenodd" d="M33 19a9 9 0 1 1-18 0 9 9 0 0 1 18 0Zm-9 8a8 8 0 1 0 0-16 8 8 0 0 0 0 16Zm-10.605 6.015C16.28 31.398 20.118 30.5 24 30.5c3.882 0 7.72.898 10.605 2.515C37.482 34.627 39.5 37.013 39.5 40h-1c0-2.477-1.669-4.591-4.384-6.113C31.407 32.37 27.745 31.5 24 31.5c-3.745 0-7.407.87-10.116 2.387C11.168 35.41 9.5 37.523 9.5 40h-1c0-2.987 2.018-5.373 4.895-6.985Z" clip-rule="evenodd"/><path fill="#620F12" fill-rule="evenodd" d="M24 3C12.402 3 3 12.402 3 24s9.402 21 21 21 21-9.402 21-21S35.598 3 24 3ZM1 24C1 11.297 11.297 1 24 1s23 10.297 23 23-10.297 23-23 23S1 36.703 1 24Z" clip-rule="evenodd"/></svg>