<svg xmlns="http://www.w3.org/2000/svg" data-testid="spot-rent" viewBox="0 0 48 48"><path fill="#fff" fill-rule="evenodd" d="M33.4 14.8a9 9 0 0 1-9 9h-1.564a9.068 9.068 0 0 0 1.657 2.69l-3.01 13.838a1 1 0 0 0 .11.713l2.307 3.995a1 1 0 0 0 1.366.366l3.464-2a1 1 0 0 0 .366-1.366l-1.775-3.074a.25.25 0 0 1 .092-.342l3.074-1.775a1 1 0 0 0 .366-1.366l-1.775-3.074a.25.25 0 0 1 .092-.342l6.533-3.772.005-.003a9 9 0 0 0-2.878-16.647 8.98 8.98 0 0 1 .57 3.159Z" clip-rule="evenodd"/><path fill="#620F12" d="M33.147 16.085a2.502 2.502 0 0 1 1.768 3.062 2.5 2.5 0 0 1-3.062 1.768L32.5 18.5l.647-2.415Z"/><path fill="#620F12" fill-rule="evenodd" d="M33.756 12.91a8 8 0 0 1 1.452 14.512l-6.538 3.776a1.25 1.25 0 0 0-.458 1.707l1.775 3.074-3.074 1.775a1.25 1.25 0 0 0-.458 1.708l1.775 3.074-3.464 2-2.307-3.995 3.011-13.84.108-.497-.338-.38a8.042 8.042 0 0 1-1.25-1.88 8.951 8.951 0 0 1-.886-.144h-1.336a10.058 10.058 0 0 0 1.643 2.958l-2.906 13.358a2 2 0 0 0 .222 1.425l2.307 3.995a2 2 0 0 0 2.732.732l3.464-2a2 2 0 0 0 .732-2.732l-1.4-2.425 2.425-1.4a2 2 0 0 0 .732-2.732l-1.4-2.425 5.89-3.4c4.782-2.76 6.42-8.877 3.66-13.66a9.98 9.98 0 0 0-6.997-4.86c.392.705.693 1.47.884 2.277Z" clip-rule="evenodd"/><path fill="#D92228" fill-rule="evenodd" d="M24 5c-5.523 0-10 4.477-10 10 0 .867.11 1.71.319 2.514l-8.789 9.52A2 2 0 0 0 5 28.391V33a2 2 0 0 0 2 2h4a2 2 0 0 0 2-2v-3h3a2 2 0 0 0 2-2v-3h6c5.523 0 10-4.477 10-10S29.523 5 24 5Z" clip-rule="evenodd"/><path fill="#620F12" d="M29 11.5a2.5 2.5 0 1 1-5 0 2.5 2.5 0 0 1 5 0Z"/><path fill="#620F12" fill-rule="evenodd" d="M34 4a6 6 0 0 0-6 6 1 1 0 1 1-2 0 8 8 0 1 1 13.143 6.128l-1.286-1.532A6 6 0 0 0 34 4Z" clip-rule="evenodd"/></svg>