<svg xmlns="http://www.w3.org/2000/svg" data-testid="spot-arrows" viewBox="0 0 48 48"><path fill="#620F12" fill-rule="evenodd" d="M0 45a1 1 0 0 1 1-1h46a1 1 0 1 1 0 2H1a1 1 0 0 1-1-1Z" clip-rule="evenodd"/><path fill="#fff" d="M23.5 3A2.5 2.5 0 0 0 21 5.5V45h5V5.5A2.5 2.5 0 0 0 23.5 3Z"/><path fill="#620F12" fill-rule="evenodd" d="M20 5.5C20 3.385 21.759 2 23.5 2S27 3.385 27 5.5V46h-7V5.5ZM23.5 4c-.767 0-1.5.615-1.5 1.5V44h3V5.5c0-.885-.733-1.5-1.5-1.5Z" clip-rule="evenodd" opacity=".9"/><path fill="#fff" d="M33.623 28H9.75a1 1 0 0 0-1 1v4a1 1 0 0 0 1 1h23.873a.5.5 0 0 1 .5.5v2.209c0 .873 1.04 1.327 1.68.733l6.156-5.709a1 1 0 0 0 0-1.466l-6.156-5.71c-.64-.593-1.68-.139-1.68.734V27.5a.5.5 0 0 1-.5.5Z"/><path fill="#D92228" d="M13.377 19H37.25a1 1 0 0 0 1-1v-4a1 1 0 0 0-1-1H13.377a.5.5 0 0 1-.5-.5v-2.209c0-.873-1.04-1.327-1.68-.733L5.04 15.267a1 1 0 0 0 0 1.466l6.156 5.71c.64.593 1.68.139 1.68-.734V19.5a.5.5 0 0 1 .5-.5Z"/><path fill="#620F12" fill-rule="evenodd" d="M33.123 25.291c0-1.746 2.08-2.653 3.36-1.466l6.156 5.708a2 2 0 0 1 0 2.933l-6.156 5.71c-1.28 1.186-3.36.279-3.36-1.467v-1.71H10.75a3 3 0 0 1-3-3v-2a3 3 0 0 1 3-3h22.373v-1.708ZM41.28 31l-6.156-5.709V27.5a1.5 1.5 0 0 1-1.5 1.5H10.75a1 1 0 0 0-1 1v2a1 1 0 0 0 1 1h22.873a1.5 1.5 0 0 1 1.5 1.5v2.209l6.156-5.71Z" clip-rule="evenodd"/><path fill="#D92228" fill-rule="evenodd" d="M11.537 22.076a.5.5 0 0 0 .84-.367V19.5a1 1 0 0 1 1-1H36.25a1.5 1.5 0 0 0 1.5-1.5v-2a1.5 1.5 0 0 0-1.5-1.5H13.377a1 1 0 0 1-1-1v-2.209a.5.5 0 0 0-.84-.366L5.38 15.633a.5.5 0 0 0 0 .734l6.156 5.709Zm1.84-.367c0 1.31-1.56 1.99-2.52 1.1L4.7 17.099a1.5 1.5 0 0 1 0-2.199l6.156-5.709c.96-.89 2.52-.21 2.52 1.1v2.21H36.25a2.5 2.5 0 0 1 2.5 2.5v2a2.5 2.5 0 0 1-2.5 2.5H13.377v2.208Z" clip-rule="evenodd"/></svg>